<!-- border-bottom.svg — fully irregular cheese drips (no repeats) -->
<svg xmlns="http://www.w3.org/2000/svg"
     viewBox="0 0 1440 140"
     preserveAspectRatio="none">

  <path d="
    M0,0
    L1440,0
    L1440,102

    C1415,98 1390,62 1355,78
    C1318,95 1308,140 1252,140
    C1195,140 1218,88 1168,92
    C1112,96 1125,140 1062,140
    C1005,140 1035,58 972,72
    C915,85 932,140 865,140
    C808,140 830,104 785,96
    C742,88 748,140 682,140
    C620,140 652,70 602,86
    C548,104 535,140 488,140
    C438,140 462,112 418,102
    C372,92 360,140 312,140
    C258,140 284,78 232,92
    C186,108 190,140 132,140
    C86,140 98,118 58,122
    C32,126 18,136 0,128

    Z
  " fill="#F2B705"/>
</svg>
