<svg xmlns="http://www.w3.org/2000/svg"
     viewBox="0 0 1440 140"
     preserveAspectRatio="none">

  <path d="
    M0,0
    L1440,0
    L1440,110

    C1390,110 1370,80 1340,80
    C1300,80 1290,140 1245,140
    C1200,140 1210,85 1165,85
    C1120,85 1115,140 1065,140
    C1015,140 1025,70 970,70
    C915,70 925,140 870,140
    C815,140 820,90 780,90
    C740,90 735,140 690,140
    C645,140 655,80 600,80
    C545,80 545,140 500,140
    C455,140 450,95 410,95
    C370,95 360,140 315,140
    C270,140 275,85 230,85
    C185,85 185,140 130,140
    C75,140 85,100 45,100
    C25,100 15,120 0,120

    Z
  " fill="#F2B705"/>
</svg>
